ffmpeg version 3.4.8-0ubuntu0.2 Copyright (c) 2000-2020 the FFmpeg developers
  built with gcc 7 (Ubuntu 7.5.0-3ubuntu1~18.04)
  configuration: --prefix=/usr --extra-version=0ubuntu0.2 --toolchain=hardened --libdir=/usr/lib/x86_64-linux-gnu --incdir=/usr/include/x86_64-linux-gnu --enable-gpl --disable-stripping --enable-avresample --enable-avisynth --enable-gnutls --enable-ladspa --enable-libass --enable-libbluray --enable-libbs2b --enable-libcaca --enable-libcdio --enable-libflite --enable-libfontconfig --enable-libfreetype --enable-libfribidi --enable-libgme --enable-libgsm --enable-libmp3lame --enable-libmysofa --enable-libopenjpeg --enable-libopenmpt --enable-libopus --enable-libpulse --enable-librubberband --enable-librsvg --enable-libshine --enable-libsnappy --enable-libsoxr --enable-libspeex --enable-libssh --enable-libtheora --enable-libtwolame --enable-libvorbis --enable-libvpx --enable-libwavpack --enable-libwebp --enable-libx265 --enable-libxml2 --enable-libxvid --enable-libzmq --enable-libzvbi --enable-omx --enable-openal --enable-opengl --enable-sdl2 --enable-libdc1394 --enable-libdrm --enable-libiec61883 --enable-chromaprint --enable-frei0r --enable-libopencv --enable-libx264 --enable-shared
  libavutil      55. 78.100 / 55. 78.100
  libavcodec     57.107.100 / 57.107.100
  libavformat    57. 83.100 / 57. 83.100
  libavdevice    57. 10.100 / 57. 10.100
  libavfilter     6.107.100 /  6.107.100
  libavresample   3.  7.  0 /  3.  7.  0
  libswscale      4.  8.100 /  4.  8.100
  libswresample   2.  9.100 /  2.  9.100
  libpostproc    54.  7.100 / 54.  7.100
[rawvideo @ 0x55ffab1f1a20] Estimating duration from bitrate, this may be inaccurate
Input #0, rawvideo, from '../../SVC-Encoder-20220109T061506Z-001/SVC-Encoder/Dataset/RollerCoaster/6f_2x2/tile_yuv/f3_t2_480x480.yuv':
  Duration: 00:00:10.00, start: 0.000000, bitrate: 82944 kb/s
    Stream #0:0: Video: rawvideo (I420 / 0x30323449), yuv420p, 480x480, 82944 kb/s, 30 tbr, 30 tbn, 30 tbc
Stream mapping:
  Stream #0:0 -> #0:0 (rawvideo (native) -> h264 (libx264))
Press [q] to stop, [?] for help
[libx264 @ 0x55ffab1fec60] using cpu capabilities: MMX2 SSE2Fast LZCNT SSSE3 SSE4.2 AVX
[libx264 @ 0x55ffab1fec60] profile High, level 3.0
Output #0, rawvideo, to 'RollerCoaster_f3_t2_480x480_x264_QP_24.h264':
  Metadata:
    encoder         : Lavf57.83.100
    Stream #0:0: Video: h264 (libx264), yuv420p, 480x480, q=-1--1, 30 fps, 30 tbn, 30 tbc
    Metadata:
      encoder         : Lavc57.107.100 libx264
    Side data:
      cpb: bitrate max/min/avg: 0/0/0 buffer size: 0 vbv_delay: -1
frame=  131 fps=0.0 q=30.0 PSNR=Y:nan U:nan V:nan *:nan size=      96kB time=00:00:02.93 bitrate= 269.5kbits/s speed=5.86x    frame=  225 fps=224 q=30.0 PSNR=Y:nan U:nan V:nan *:nan size=     186kB time=00:00:06.06 bitrate= 251.3kbits/s speed=6.05x    frame=  300 fps=204 q=30.0 LPSNR=Y:inf U:inf V:inf *:inf size=     282kB time=00:00:09.93 bitrate= 232.9kbits/s speed=6.76x    
video:282kB audio:0kB subtitle:0kB other streams:0kB global headers:0kB muxing overhead: 0.000000%
[libx264 @ 0x55ffab1fec60] frame I:2     Avg QP:21.88  size: 24118  PSNR Mean Y:45.95 U:48.90 V:46.99 Avg:46.49 Global:46.42
[libx264 @ 0x55ffab1fec60] frame P:77    Avg QP:23.23  size:  2338  PSNR Mean Y:44.06 U:48.08 V:46.29 Avg:44.85 Global:44.83
[libx264 @ 0x55ffab1fec60] frame B:221   Avg QP:29.45  size:   276  PSNR Mean Y:43.43 U:48.03 V:46.23 Avg:44.34 Global:44.32
[libx264 @ 0x55ffab1fec60] consecutive B-frames:  0.7%  2.7%  2.0% 94.7%
[libx264 @ 0x55ffab1fec60] mb I  I16..4: 26.5% 50.0% 23.5%
[libx264 @ 0x55ffab1fec60] mb P  I16..4:  1.2%  0.5%  0.0%  P16..4: 28.1% 11.0%  7.3%  0.0%  0.0%    skip:51.9%
[libx264 @ 0x55ffab1fec60] mb B  I16..4:  0.0%  0.0%  0.0%  B16..8: 20.4%  1.4%  0.1%  direct: 0.1%  skip:78.0%  L0:44.7% L1:50.9% BI: 4.4%
[libx264 @ 0x55ffab1fec60] 8x8 transform intra:41.2% inter:62.9%
[libx264 @ 0x55ffab1fec60] coded y,uvDC,uvAC intra: 43.7% 61.6% 30.6% inter: 4.2% 3.7% 0.1%
[libx264 @ 0x55ffab1fec60] i16 v,h,dc,p: 33% 39% 13% 15%
[libx264 @ 0x55ffab1fec60] i8 v,h,dc,ddl,ddr,vr,hd,vl,hu: 19% 24% 23%  5%  4%  4%  6%  6%  9%
[libx264 @ 0x55ffab1fec60] i4 v,h,dc,ddl,ddr,vr,hd,vl,hu: 20% 22% 12% 10%  6%  6%  6%  9% 10%
[libx264 @ 0x55ffab1fec60] i8c dc,h,v,p: 38% 30% 19% 13%
[libx264 @ 0x55ffab1fec60] Weighted P-Frames: Y:2.6% UV:0.0%
[libx264 @ 0x55ffab1fec60] ref P L0: 57.6% 12.4% 20.7%  9.1%  0.1%
[libx264 @ 0x55ffab1fec60] ref B L0: 62.4% 29.2%  8.4%
[libx264 @ 0x55ffab1fec60] ref B L1: 75.7% 24.3%
[libx264 @ 0x55ffab1fec60] PSNR Mean Y:43.611 U:48.053 V:46.250 Avg:44.482 Global:44.454 kb/s:231.37
